<?xml version="1.0" standalone="no"?>
<!DOCTYPE svg PUBLIC "-//W3C//DTD SVG 20010904//EN"
 "http://www.w3.org/TR/2001/REC-SVG-20010904/DTD/svg10.dtd">
<svg version="1.0"
  xmlns="http://www.w3.org/2000/svg" width="512.000000pt" height="512.000000pt" viewBox="0 0 512.000000 512.000000" preserveAspectRatio="xMidYMid meet">

  <g transform="translate(0.000000,512.000000) scale(0.100000,-0.100000)" fill="#000000" stroke="none">
    <path d="M821 5102 c-19 -9 -44 -30 -55 -45 l-21 -28 0 -2467 0 -2467 24 -34
c42 -58 60 -61 371 -61 164 0 289 4 300 10 43 23 40 116 -5 134 -9 3 -133 6
-276 6 l-259 0 0 2410 0 2410 1659 0 1659 0 4 -221 c3 -218 3 -221 27 -240 30
-24 72 -24 102 0 l24 19 0 249 c0 246 0 248 -24 282 -47 65 77 61 -1793 61
-1602 0 -1705 -1 -1737 -18z"/>
    <path d="M2485 4739 c-46 -13 -110 -73 -129 -119 -9 -22 -19 -78 -22 -124 -7
-83 -8 -86 -48 -125 l-41 -40 -251 -3 -251 -3 -41 -28 c-23 -15 -54 -46 -69
-69 -25 -37 -28 -51 -28 -123 0 -73 3 -85 27 -117 l27 -36 -174 -487 c-96
-268 -175 -489 -175 -491 0 -2 -9 -4 -19 -4 -11 0 -33 -12 -50 -26 -27 -22
-31 -32 -31 -72 1 -89 67 -192 124 -192 48 0 76 24 76 67 0 20 -7 45 -17 55
-16 17 -3 18 380 18 244 0 397 -4 397 -9 0 -15 -60 -58 -122 -86 -92 -42 -188
-58 -312 -52 -104 6 -109 5 -132 -18 -46 -46 -21 -109 51 -125 60 -14 194 -12
277 4 180 36 310 109 381 216 l17 24 0 -40 c0 -38 -3 -42 -41 -59 -76 -35
-109 -109 -109 -246 l0 -59 -177 0 c-193 0 -227 -8 -285 -62 -52 -50 -71 -104
-72 -205 -1 -104 13 -134 75 -165 32 -17 92 -18 839 -18 747 0 807 1 839 18
62 31 76 61 75 165 -1 101 -20 155 -72 205 -58 54 -92 62 -284 62 l-178 0 0
59 c0 137 -33 211 -109 246 -38 17 -41 21 -41 58 l0 40 28 -39 c64 -88 178
-156 319 -191 97 -24 314 -23 408 1 217 56 365 189 365 327 0 40 -4 51 -31 73
-17 14 -39 26 -48 26 -15 0 -49 92 -188 498 l-170 497 21 30 c17 25 21 45 21
111 0 71 -3 85 -28 122 -15 23 -46 54 -69 69 l-41 28 -251 3 -251 3 -41 40
c-40 39 -41 42 -48 126 -8 101 -29 156 -79 200 -56 49 -143 65 -222 42z m125
-159 c12 -12 20 -33 20 -55 l0 -35 -70 0 -70 0 0 35 c0 44 29 75 70 75 17 0
39 -9 50 -20z m33 -253 c87 -37 136 -113 137 -211 0 -185 -206 -287 -358 -176
-103 74 -110 253 -14 343 55 53 165 73 235 44z m-453 -222 l0 -75 -194 0
c-180 0 -195 1 -220 21 -33 26 -36 79 -6 109 19 19 33 20 220 20 l200 0 0 -75z
m1160 55 c30 -30 27 -83 -6 -109 -25 -20 -40 -21 -220 -21 l-194 0 0 75 0 75
200 0 c187 0 201 -1 220 -20z m-1052 -310 l32 -30 0 -440 0 -441 -22 15 c-12
9 -30 16 -39 16 -12 0 -41 74 -124 318 -59 174 -130 379 -156 455 l-48 137
162 0 162 -1 33 -29z m892 26 c0 -3 -72 -206 -160 -452 -88 -245 -160 -448
-160 -450 0 -2 -8 -4 -18 -4 -10 0 -28 -7 -40 -16 l-22 -15 0 441 0 440 33 30
32 29 168 1 c92 0 167 -2 167 -4z m-1247 -461 c81 -236 147 -433 147 -437 0
-5 -140 -8 -311 -8 -245 0 -310 3 -307 13 157 443 314 874 319 869 3 -4 72
-200 152 -437z m1560 0 c81 -236 147 -433 147 -437 0 -5 -140 -8 -311 -8 -245
0 -310 3 -307 13 157 443 314 874 319 869 3 -4 72 -200 152 -437z m-873 -197
l0 -528 -70 0 -70 0 0 528 0 527 70 0 70 0 0 -527z m1100 -407 c0 -15 -60 -58
-122 -86 -158 -72 -378 -72 -536 0 -62 28 -122 71 -122 86 0 5 151 9 390 9
239 0 390 -4 390 -9z m-950 -356 l0 -85 -220 0 -220 0 0 85 0 85 220 0 220 0
0 -85z m517 -257 c18 -17 23 -32 23 -75 l0 -53 -760 0 -760 0 0 52 c0 39 5 57
22 75 l21 23 716 0 715 0 23 -22z"/>
    <path d="M4253 4266 l-28 -24 -3 -2046 -2 -2046 -1246 0 -1245 0 -24 -25 c-32
-31 -32 -69 0 -100 l24 -25 1266 0 c1390 0 1310 -4 1356 61 l24 34 0 2073 0
2074 -28 24 c-35 30 -59 30 -94 0z"/>
    <path d="M1507 1579 c-46 -27 -41 -105 9 -128 17 -8 172 -11 513 -11 479 0
489 0 515 21 33 26 36 79 6 109 -19 19 -33 20 -522 20 -333 -1 -509 -4 -521
-11z"/>
    <path d="M1305 1253 c-36 -9 -55 -34 -55 -73 0 -76 -113 -70 1312 -70 1222 0
1276 1 1291 18 24 27 22 85 -4 108 -20 18 -57 19 -1273 20 -688 1 -1260 0
-1271 -3z"/>
    <path d="M1272 954 c-30 -21 -31 -83 -1 -110 21 -18 56 -19 1289 -19 1233 0
1268 1 1289 19 14 13 21 31 21 57 0 74 103 69 -1310 69 -1129 0 -1268 -2
-1288 -16z"/>
    <path d="M1270 670 c-30 -30 -27 -83 6 -109 27 -21 27 -21 1284 -21 1257 0
1257 0 1284 21 33 26 36 79 6 109 -20 20 -33 20 -1290 20 -1257 0 -1270 0
-1290 -20z"/>
  </g>
</svg>
