<?xml version="1.0" encoding="utf-8"?>
<!-- Generator: Adobe Illustrator 18.0.0, SVG Export Plug-In . SVG Version: 6.00 Build 0)  -->
<!DOCTYPE svg PUBLIC "-//W3C//DTD SVG 1.1//EN" "http://www.w3.org/Graphics/SVG/1.1/DTD/svg11.dtd">
<svg version="1.1" id="Layer_1"
	xmlns="http://www.w3.org/2000/svg"
	xmlns:xlink="http://www.w3.org/1999/xlink" x="0px" y="0px" viewBox="0 0 42.2 40.4" enable-background="new 0 0 42.2 40.4" xml:space="preserve">
	<g>
		<polygon fill="none" points="27.6,33.2 28.4,33.2 28.4,31.5 29.2,31.5 29.2,16 28.4,16 28.4,14.2 23.7,14.2 23.7,16 22.9,16 
		22.9,31.5 23.7,31.5 23.7,33.2 	"/>
		<polygon fill="none" points="14.7,33.2 18.6,33.2 18.6,31.5 19.4,31.5 19.4,16 18.6,16 18.6,14.2 13.9,14.2 13.9,16 13.1,16 
		13.1,31.5 13.9,31.5 13.9,33.2 	"/>
		<polygon fill="#616E7D" points="5.8,12.4 36.5,12.4 21.1,4.8 	"/>
		<path fill="#616E7D" d="M13.9,33.2h-0.8H9.6H8.8h-1v2h-2v2h30.6v-2h-2v-2h-1h-0.8h-3.6h-0.8h-0.8V34h-13v-0.8H13.9z M27.6,37.2h-13
		v-0.8h13V37.2z M27.6,34.8v0.8h-13v-0.8H27.6z"/>
		<polygon fill="#AAD3C7" points="13.9,16 13.9,14.2 13.1,14.2 9.6,14.2 8.8,14.2 8.8,16 9.6,16 9.6,31.5 8.8,31.5 8.8,33.2 
		9.6,33.2 13.1,33.2 13.9,33.2 13.9,31.5 13.1,31.5 13.1,16 	"/>
		<polygon fill="#AAD3C7" points="33.5,16 33.5,14.2 32.7,14.2 29.2,14.2 28.4,14.2 28.4,16 29.2,16 29.2,31.5 28.4,31.5 28.4,33.2 
		29.2,33.2 32.7,33.2 33.5,33.2 33.5,31.5 32.7,31.5 32.7,16 	"/>
		<polygon fill="#AAD3C7" points="23.7,16 23.7,14.2 22.9,14.2 19.4,14.2 18.6,14.2 18.6,16 19.4,16 19.4,31.5 18.6,31.5 18.6,33.2 
		19.4,33.2 22.9,33.2 23.7,33.2 23.7,31.5 22.9,31.5 22.9,16 	"/>
		<polygon fill="#616E7D" points="5.8,14.2 8.8,14.2 9.6,14.2 13.1,14.2 13.9,14.2 18.6,14.2 19.4,14.2 22.9,14.2 23.7,14.2 
		28.4,14.2 29.2,14.2 32.7,14.2 33.5,14.2 36.5,14.2 36.5,13 5.8,13 	"/>
		<polygon fill="#82BFAB" points="22.9,33.2 19.4,33.2 18.6,33.2 14.7,33.2 14.7,34 27.6,34 27.6,33.2 23.7,33.2 	"/>
		<rect x="14.7" y="34.8" fill="#82BFAB" width="13" height="0.8"/>
		<rect x="14.7" y="36.4" fill="#82BFAB" width="13" height="0.8"/>
	</g>
</svg>
