<?xml version="1.0" standalone="no"?>
<!DOCTYPE svg PUBLIC "-//W3C//DTD SVG 20010904//EN"
 "http://www.w3.org/TR/2001/REC-SVG-20010904/DTD/svg10.dtd">
<svg version="1.0"
  xmlns="http://www.w3.org/2000/svg" width="512.000000pt" height="512.000000pt" viewBox="0 0 512.000000 512.000000" preserveAspectRatio="xMidYMid meet">

  <g transform="translate(0.000000,512.000000) scale(0.100000,-0.100000)" fill="#000000" stroke="none">
    <path d="M1289 4274 c-690 -393 -1262 -725 -1271 -736 -16 -17 -18 -42 -18
-180 l0 -160 29 -29 c26 -26 36 -29 90 -29 l61 0 0 -149 c0 -135 2 -151 21
-175 20 -25 24 -26 130 -26 l109 0 0 -52 c0 -76 17 -127 56 -166 l34 -34 0
-763 0 -764 -149 -3 c-142 -3 -151 -4 -175 -27 -26 -24 -26 -26 -26 -178 l0
-153 -59 0 c-117 0 -121 -8 -121 -264 0 -192 0 -195 24 -223 l24 -28 2512 0
2512 0 24 28 c24 28 24 31 24 223 0 256 -4 264 -121 264 l-59 0 0 153 c0 152
0 154 -26 178 -24 23 -33 24 -175 27 l-149 3 0 764 0 763 34 34 c39 39 56 90
56 166 l0 52 109 0 c106 0 110 1 130 26 19 24 21 40 21 175 l0 149 61 0 c54 0
64 3 90 29 l29 29 0 160 c0 138 -2 163 -17 180 -23 26 -2520 1452 -2543 1452
-10 0 -582 -322 -1271 -716z m2469 -149 l1191 -680 1 -67 0 -68 -2390 0 -2390
0 0 68 1 67 1192 682 c656 374 1195 680 1198 680 3 -1 542 -308 1197 -682z
m1022 -1080 l0 -95 -2220 0 -2220 0 0 95 0 95 2220 0 2220 0 0 -95z m-3810
-305 l0 -50 -180 0 -180 0 0 50 0 50 180 0 180 0 0 -50z m360 -31 c5 -79 22
-117 67 -152 l23 -18 0 -765 0 -764 -185 0 -185 0 0 766 0 766 26 21 c40 31
64 92 64 165 l0 63 93 -3 92 -3 5 -76z m530 31 l0 -50 -185 0 -185 0 0 43 c0
24 3 47 7 50 3 4 87 7 185 7 l178 0 0 -50z m350 -2 c0 -76 17 -127 56 -166
l34 -34 0 -764 0 -764 -180 0 -180 0 0 770 c0 682 2 771 15 776 9 4 27 25 40
49 20 33 25 56 25 107 0 35 3 68 7 71 3 4 46 7 95 7 l88 0 0 -52z m530 2 l0
-50 -180 0 -180 0 0 50 0 50 180 0 180 0 0 -50z m360 -30 c5 -77 32 -141 65
-154 13 -5 15 -105 15 -776 l0 -770 -180 0 -180 0 0 764 0 764 34 34 c39 39
56 90 56 166 l0 53 93 -3 92 -3 5 -75z m528 28 l3 -48 -185 0 -186 0 0 50 0
50 183 -2 182 -3 3 -47z m352 -10 c0 -73 24 -134 64 -165 l26 -21 0 -766 0
-766 -185 0 -185 0 0 764 0 765 24 18 c46 37 66 83 66 154 0 36 3 69 7 72 3 4
46 7 95 7 l88 0 0 -62z m530 12 l0 -50 -180 0 -180 0 0 50 0 50 180 0 180 0 0
-50z m-3630 -975 l0 -755 -90 0 -90 0 0 755 0 755 90 0 90 0 0 -755z m890 0
l0 -755 -95 0 -95 0 0 755 0 755 95 0 95 0 0 -755z m880 0 l0 -755 -90 0 -90
0 0 755 0 755 90 0 90 0 0 -755z m890 0 l0 -755 -95 0 -95 0 0 755 0 755 95 0
95 0 0 -755z m880 0 l0 -755 -90 0 -90 0 0 755 0 755 90 0 90 0 0 -755z m360
-1020 l0 -95 -2220 0 -2220 0 0 95 0 95 2220 0 2220 0 0 -95z m170 -350 l0
-95 -2390 0 -2390 0 0 95 0 95 2390 0 2390 0 0 -95z"/>
  </g>
</svg>
