<?xml version="1.0" standalone="no"?>
<!DOCTYPE svg PUBLIC "-//W3C//DTD SVG 20010904//EN"
 "http://www.w3.org/TR/2001/REC-SVG-20010904/DTD/svg10.dtd">
<svg version="1.0"
  xmlns="http://www.w3.org/2000/svg" width="512.000000pt" height="512.000000pt" viewBox="0 0 512.000000 512.000000" preserveAspectRatio="xMidYMid meet">

  <g transform="translate(0.000000,512.000000) scale(0.100000,-0.100000)" fill="#000000" stroke="none">
    <path d="M2455 5103 c-28 -10 -66 -29 -85 -43 -79 -56 -2158 -1655 -2189
-1684 -86 -79 -94 -206 -18 -293 51 -58 95 -73 219 -73 l108 0 -7 -45 c-9 -69
13 -131 67 -187 28 -29 58 -50 78 -54 l32 -6 0 -102 c0 -118 14 -146 73 -146
62 0 77 29 77 149 l0 91 235 0 235 0 0 -740 0 -740 -235 0 -235 0 0 486 c0
484 -2 515 -34 536 -23 16 -75 8 -96 -14 -20 -21 -20 -32 -20 -519 l0 -496
-32 -7 c-20 -4 -50 -25 -78 -54 -54 -56 -76 -118 -67 -187 l7 -45 -68 0 c-51
0 -76 -6 -106 -23 -73 -41 -95 -94 -96 -229 l0 -68 -40 0 c-74 0 -144 -47
-169 -113 -7 -17 -11 -114 -11 -238 0 -210 0 -210 25 -234 l24 -25 1821 0
1821 0 24 25 c32 31 32 69 0 100 l-24 25 -1771 0 -1771 0 3 153 3 152 2405 0
2405 0 3 -152 3 -153 -491 0 c-477 0 -491 -1 -510 -20 -27 -27 -27 -83 0 -110
20 -20 33 -20 560 -20 l541 0 25 25 25 25 -3 223 c-3 220 -3 224 -28 260 -30
45 -92 77 -148 77 l-42 0 0 68 c-1 138 -24 191 -100 230 -32 16 -62 22 -107
22 l-63 0 7 45 c9 69 -13 131 -67 187 -28 29 -58 50 -78 54 l-32 7 0 747 0
748 32 6 c20 4 50 25 78 54 54 56 76 118 67 187 l-7 45 108 0 c124 0 168 15
219 73 78 89 68 216 -23 297 -22 19 -239 188 -482 375 -474 363 -486 371 -531
326 -24 -24 -27 -69 -8 -94 6 -10 221 -178 477 -375 345 -265 466 -363 468
-380 2 -13 -4 -34 -12 -48 l-16 -24 -2270 0 -2270 0 -16 24 c-8 14 -14 35 -12
48 2 17 276 233 1093 861 600 462 1108 848 1130 858 51 24 99 24 150 0 22 -10
263 -190 535 -400 405 -311 501 -381 526 -381 56 0 94 69 62 113 -26 32 -1005
778 -1056 804 -71 35 -175 41 -247 16z m-1020 -2118 c14 -13 25 -36 25 -50 0
-14 -11 -37 -25 -50 l-24 -25 -366 0 -366 0 -24 25 c-14 13 -25 36 -25 50 0
14 11 37 25 50 l24 25 366 0 366 0 24 -25z m565 -9 c-20 -91 31 -195 117 -236
l52 -25 0 -745 0 -745 -52 -25 c-86 -42 -137 -146 -117 -236 l8 -34 -204 0
-204 0 7 45 c9 69 -13 131 -67 187 -28 29 -58 50 -78 54 l-32 6 0 748 0 748
32 6 c20 4 50 25 78 54 54 56 76 118 67 187 l-7 45 204 0 204 0 -8 -34z m933
23 c30 -16 37 -28 37 -66 0 -20 -8 -41 -20 -53 -19 -19 -33 -20 -390 -20 -357
0 -371 1 -390 20 -27 27 -27 83 2 110 21 19 33 20 381 20 251 0 365 -3 380
-11z m580 -34 c-9 -69 13 -131 67 -187 28 -29 58 -50 78 -54 l32 -6 0 -748 0
-747 -32 -7 c-20 -4 -50 -25 -78 -54 -54 -56 -76 -118 -67 -187 l7 -45 -204 0
-203 0 7 37 c16 96 -32 190 -118 233 l-51 25 0 745 0 745 52 25 c86 41 133
136 117 233 l-7 37 203 0 204 0 -7 -45z m952 20 c14 -13 25 -36 25 -50 0 -14
-11 -37 -25 -50 l-24 -25 -366 0 -366 0 -24 25 c-14 13 -25 36 -25 50 0 14 11
37 25 50 l24 25 366 0 366 0 24 -25z m-1675 -1015 l0 -740 -230 0 -230 0 0
740 0 740 230 0 230 0 0 -740z m1520 0 l0 -740 -235 0 -235 0 0 740 0 740 235
0 235 0 0 -740z m-2875 -915 c14 -13 25 -36 25 -50 0 -14 -11 -37 -25 -50
l-24 -25 -366 0 -366 0 -24 25 c-14 13 -25 36 -25 50 0 14 11 37 25 50 l24 25
366 0 366 0 24 -25z m1513 5 c29 -27 29 -83 2 -110 -19 -19 -33 -20 -388 -20
-357 0 -369 1 -390 20 -14 14 -22 33 -22 55 0 22 8 41 22 55 21 19 33 20 388
20 355 0 367 -1 388 -20z m1517 -5 c14 -13 25 -36 25 -50 0 -14 -11 -37 -25
-50 l-24 -25 -366 0 -366 0 -24 25 c-14 13 -25 36 -25 50 0 14 11 37 25 50
l24 25 366 0 366 0 24 -25z m275 -360 l0 -85 -2180 0 -2180 0 0 85 0 85 2180
0 2180 0 0 -85z"/>
    <path d="M1655 4135 c-484 -372 -890 -686 -902 -698 -33 -29 -31 -79 3 -106
l27 -21 1777 0 1777 0 27 21 c36 28 36 76 -1 111 -16 14 -419 326 -898 694
-624 479 -878 669 -900 672 -26 3 -134 -77 -910 -673z m1671 -82 l764 -588
-765 -3 c-421 -1 -1109 -1 -1530 0 l-764 3 762 587 c419 323 764 587 765 587
2 1 348 -263 768 -586z"/>
  </g>
</svg>
