<?xml version="1.0" standalone="no"?>
<!DOCTYPE svg PUBLIC "-//W3C//DTD SVG 20010904//EN"
 "http://www.w3.org/TR/2001/REC-SVG-20010904/DTD/svg10.dtd">
<svg version="1.0"
  xmlns="http://www.w3.org/2000/svg" width="512.000000pt" height="512.000000pt" viewBox="0 0 512.000000 512.000000" preserveAspectRatio="xMidYMid meet">

  <g transform="translate(0.000000,512.000000) scale(0.100000,-0.100000)" fill="#000000" stroke="none">
    <path d="M2465 4757 c-22 -8 -54 -21 -70 -29 -38 -20 -120 -107 -129 -136 l-7
-22 -595 0 -594 0 0 55 0 56 -142 -3 -143 -3 -3 -72 -3 -73 -134 0 -135 0 0
-95 0 -95 135 0 135 0 0 -79 c0 -75 1 -80 22 -83 13 -2 23 -5 23 -8 0 -3 -124
-366 -275 -808 l-275 -802 -55 0 c-70 0 -137 -32 -163 -78 -26 -45 -23 -117 8
-225 90 -312 318 -539 632 -629 113 -33 343 -33 456 0 193 55 347 156 466 307
147 184 230 455 171 553 -27 43 -89 71 -160 72 l-55 0 -273 798 c-150 438
-272 803 -272 810 0 6 9 12 20 12 16 0 19 8 22 58 l3 57 586 3 586 2 37 -55
c22 -34 57 -69 91 -91 l55 -37 0 -1363 0 -1364 -165 0 -165 0 0 -140 0 -140
460 0 460 0 0 140 0 140 -170 0 -170 0 0 1364 0 1364 44 26 c47 28 97 79 121
126 l16 30 602 -2 602 -3 3 -57 c2 -45 7 -58 19 -58 8 0 13 -6 11 -12 -3 -7
-128 -372 -278 -810 l-273 -798 -56 0 c-72 -1 -134 -28 -161 -72 -58 -95 23
-363 164 -547 132 -171 348 -298 566 -332 100 -15 275 -6 368 21 307 87 537
317 627 626 58 201 16 289 -144 303 l-64 6 -273 795 c-150 437 -274 801 -274
808 0 7 13 12 30 12 l30 0 0 80 0 80 125 0 125 0 0 95 0 95 -125 0 -124 0 -3
73 -3 72 -142 3 -143 3 0 -56 0 -55 -603 0 -604 0 -32 50 c-38 58 -77 90 -146
121 -60 27 -164 34 -220 16z m203 -133 c120 -70 144 -232 51 -338 -104 -118
-288 -95 -362 44 -26 49 -28 62 -24 119 13 168 190 260 335 175z m-438 -194
l0 -50 -580 0 -580 0 0 50 0 50 580 0 580 0 0 -50z m1838 3 l-3 -48 -589 0
-589 0 -1 48 -1 47 593 0 593 0 -3 -47z m-3188 -1158 l0 -715 -251 0 c-235 0
-251 1 -244 18 4 9 108 312 232 672 276 801 254 740 259 740 2 0 4 -322 4
-715z m3267 -712 c-2 -2 -114 -2 -249 -1 l-244 3 242 705 c134 388 244 707
246 710 2 3 4 -314 5 -704 2 -390 2 -711 0 -713z m367 664 c124 -362 226 -660
226 -662 0 -3 -110 -5 -245 -5 l-245 0 1 713 c0 699 1 711 19 662 10 -27 119
-346 244 -708z m-3290 53 c129 -377 238 -693 241 -702 7 -17 -9 -18 -239 -18
l-246 0 0 707 c0 388 2 704 4 702 3 -2 110 -312 240 -689z"/>
    <path d="M2503 4546 c-42 -19 -73 -70 -73 -120 0 -32 7 -45 40 -78 39 -39 42
-40 92 -36 42 4 57 11 79 36 92 103 -14 253 -138 198z"/>
    <path d="M1736 994 c-184 -40 -278 -97 -436 -266 l-63 -68 1320 0 1320 0 -96
99 c-53 54 -124 117 -159 139 -67 43 -179 84 -276 101 -39 7 -323 11 -800 10
-613 0 -753 -3 -810 -15z m-42 -130 c34 -34 8 -84 -44 -84 -16 0 -36 7 -44 16
-34 34 -8 84 44 84 16 0 36 -7 44 -16z m1120 0 c9 -8 16 -24 16 -34 0 -10 -7
-26 -16 -34 -14 -14 -72 -16 -494 -16 -422 0 -480 2 -494 16 -9 8 -16 24 -16
34 0 10 7 26 16 34 14 14 72 16 494 16 422 0 480 -2 494 -16z"/>
    <path d="M875 546 c-60 -27 -95 -85 -95 -157 l0 -39 1825 0 1825 0 0 49 c0 56
-27 103 -79 138 l-34 23 -1706 0 c-1399 -1 -1711 -3 -1736 -14z"/>
  </g>
</svg>
